<?xml version="1.0" encoding="utf-8"?>
<!-- Generator: Adobe Illustrator 22.1.0, SVG Export Plug-In . SVG Version: 6.00 Build 0)  -->
<svg version="1.1" id="Layer_1" xmlns="http://www.w3.org/2000/svg" xmlns:xlink="http://www.w3.org/1999/xlink" x="0px" y="0px"
	 viewBox="0 0 165 30" style="enable-background:new 0 0 165 30;" xml:space="preserve">
<style type="text/css">
	.st0{fill:#FFDD09;}
	.st1{fill:#FFFFFF;}
	.st2{fill:#FD9808;}
	.st3{fill:#333333;}
	.st4{fill:#0059A4;}
	.st5{fill:#007AC5;}
	.st6{fill:#139AE4;}
</style>
<g>
	<g transform="translate(0 1)">
		<path class="st0" d="M89.1,11h-4.5l4.2-6.6h-5.3l-4.9,9.9h3.9l-3.9,9.2L89.1,11z"/>
		<path class="st1" d="M84.8,4.4h-1.3l-4.9,9.9h1.3L84.8,4.4z"/>
		<path class="st2" d="M87.4,11l-7.9,9.4l-1.3,3.1L88.8,11C88.8,11,87.4,11,87.4,11z"/>
		<path class="st3" d="M78.5,23.9c-0.1,0-0.1,0-0.2,0c-0.1-0.1-0.2-0.3-0.1-0.4l3.7-8.8h-3.4c-0.1,0-0.2-0.1-0.3-0.2
			c-0.1-0.1-0.1-0.2,0-0.3l4.9-9.9c0.1-0.1,0.2-0.2,0.3-0.2h5.3c0.1,0,0.2,0.1,0.3,0.2c0.1,0.1,0.1,0.2,0,0.3l-3.9,6.1h3.9
			c0.1,0,0.2,0.1,0.3,0.2c0.1,0.1,0,0.3,0,0.4L78.8,23.8C78.7,23.9,78.6,23.9,78.5,23.9z M79.1,14h3.4c0.1,0,0.2,0.1,0.3,0.1
			c0.1,0.1,0.1,0.2,0,0.3l-3,7.3l8.7-10.3h-3.8c-0.1,0-0.2-0.1-0.3-0.2c-0.1-0.1-0.1-0.2,0-0.3l3.9-6.1h-4.5L79.1,14z"/>
	</g>
	<path class="st4" d="M12.4,22.3l-0.5-3.1H5.4l-2,3.1H0L9.7,7.7h2.8l3,14.7H12.4z M10.5,11.3l-3.3,5.2h4.3L10.5,11.3z"/>
	<path class="st4" d="M32.5,22.3h-2.9l1.8-7.9l-6,7.9h-2.2l-2.3-8l-1.8,8h-2.9l3.4-14.7h2.4L25,18.5L33,7.7h2.8L32.5,22.3z"/>
	<path class="st5" d="M44.4,7.7c1.5,0,2.7,0.4,3.6,1.2c0.9,0.8,1.4,1.9,1.4,3.2c0,1.6-0.6,3-1.8,4c-1.2,1-2.8,1.5-4.7,1.5h-4.1
		l-1.1,4.8h-3L38,7.7H44.4z M43,14.8c1,0,1.8-0.2,2.4-0.7c0.6-0.5,0.9-1.1,0.9-1.9c0-1.2-0.7-1.8-2.1-1.8h-3.7l-1,4.5H43z"/>
	<path class="st5" d="M57.8,22.3l-0.5-3.1h-6.5l-2,3.1h-3.4l9.7-14.7h2.8l3,14.7H57.8z M55.9,11.3l-3.3,5.2h4.3L55.9,11.3z"/>
	<path class="st6" d="M73.3,8.5c1,0.7,1.5,1.8,1.6,3.1l-3,0.6c0-0.7-0.3-1.2-0.8-1.7c-0.5-0.4-1.1-0.6-1.9-0.6
		c-0.8,0-1.4,0.2-1.9,0.6c-0.5,0.4-0.8,0.9-0.8,1.5c0,0.3,0.1,0.6,0.3,0.8c0.2,0.2,0.5,0.4,1,0.5l2.1,0.6c2.2,0.7,3.4,1.9,3.4,3.8
		c0,1.5-0.6,2.7-1.7,3.6c-1.1,0.9-2.6,1.4-4.4,1.4c-1.6,0-2.9-0.4-4.1-1.1c-1.1-0.7-1.7-1.8-1.8-3.2l3.2-0.6c0.2,1.6,1.2,2.4,3,2.4
		c0.9,0,1.6-0.2,2.1-0.6c0.5-0.4,0.8-0.9,0.8-1.5c0-0.4-0.1-0.6-0.3-0.8c-0.2-0.2-0.6-0.4-1.2-0.6L66.8,16c-0.5-0.1-0.9-0.3-1.2-0.4
		c-0.3-0.2-0.7-0.4-1.1-0.7s-0.6-0.6-0.8-1.1c-0.2-0.4-0.3-0.9-0.3-1.5c0-1.5,0.6-2.7,1.7-3.6c1.1-0.9,2.6-1.4,4.3-1.4
		C71.1,7.3,72.3,7.7,73.3,8.5z"/>
	<path class="st3" d="M102.3,8.5c1,0.7,1.5,1.8,1.6,3.1l-3,0.6c0-0.7-0.3-1.2-0.8-1.7c-0.5-0.4-1.1-0.6-1.9-0.6
		c-0.8,0-1.4,0.2-1.9,0.6c-0.5,0.4-0.8,0.9-0.8,1.5c0,0.3,0.1,0.6,0.3,0.8c0.2,0.2,0.5,0.4,1,0.5l2.1,0.6c2.2,0.7,3.4,1.9,3.4,3.8
		c0,1.5-0.6,2.7-1.7,3.6c-1.1,0.9-2.6,1.4-4.4,1.4c-1.6,0-2.9-0.4-4.1-1.1c-1.1-0.7-1.7-1.8-1.8-3.2l3.2-0.6c0.2,1.6,1.2,2.4,3,2.4
		c0.9,0,1.6-0.2,2.1-0.6c0.5-0.4,0.8-0.9,0.8-1.5c0-0.4-0.1-0.6-0.3-0.8c-0.2-0.2-0.6-0.4-1.2-0.6L95.9,16c-0.5-0.1-0.8-0.3-1.2-0.4
		c-0.3-0.2-0.7-0.4-1-0.7s-0.6-0.6-0.8-1.1c-0.2-0.4-0.3-0.9-0.3-1.5c0-1.5,0.6-2.7,1.7-3.6c1.1-0.9,2.6-1.4,4.3-1.4
		C100.1,7.3,101.4,7.7,102.3,8.5z"/>
	<path class="st3" d="M119.5,22.3h-2.9l1.8-7.9l-6,7.9h-2.2l-2.3-8l-1.8,8h-2.9l3.4-14.7h2.4l3.1,10.8l8.1-10.8h2.8L119.5,22.3z"/>
	<path class="st3" d="M132.8,22.3l-0.5-3.1h-6.5l-2,3.1h-3.4l9.7-14.7h2.8l3,14.7H132.8z M130.9,11.3l-3.3,5.2h4.3L130.9,11.3z"/>
	<path class="st3" d="M150,14.9c-0.8,0.9-1.9,1.5-3.3,1.8l3.1,5.6h-3.3l-2.8-5.4h-2.9l-1.2,5.4h-3l3.4-14.7h6.6
		c1.4,0,2.6,0.4,3.5,1.1c0.9,0.7,1.3,1.7,1.3,3C151.2,12.9,150.8,14,150,14.9z M145,14.3c1,0,1.8-0.2,2.4-0.7c0.6-0.4,0.9-1,0.9-1.7
		c0-0.5-0.2-0.9-0.5-1.2c-0.3-0.3-0.8-0.4-1.4-0.4h-4l-0.9,3.9H145z"/>
	<path class="st3" d="M159.5,10.4l-2.8,12h-3l2.8-12h-4.9l0.6-2.7H165l-0.6,2.7H159.5z"/>
</g>
</svg>
