<?xml version="1.0" encoding="utf-8"?>
<!-- Generator: Adobe Illustrator 25.0.1, SVG Export Plug-In . SVG Version: 6.00 Build 0)  -->
<svg version="1.1" id="Layer_1" xmlns="http://www.w3.org/2000/svg" xmlns:xlink="http://www.w3.org/1999/xlink" x="0px" y="0px"
	 viewBox="0 0 165 30" style="enable-background:new 0 0 165 30;" xml:space="preserve">
<style type="text/css">
	.st0{fill:#FCA311;}
	.st1{fill:#333333;}
</style>
<path class="st0" d="M206.4-10.8"/>
<g>
	<path class="st1" d="M97.3,15c0,1.7-0.3,3.4-0.8,4.9c-1.5,4.2-4.8,7.5-9,9c-1.5,0.5-3.2,0.8-4.9,0.8H64.7l2-9.9h15.8
		c2.7,0,4.9-2.2,4.9-4.9c0-2.7-2.2-4.9-4.9-4.9H63.7l-1,4.9h-9.9l1-4.9l2-9.9h26.7c1.7,0,3.4,0.3,4.9,0.8c4.2,1.5,7.5,4.8,9,9
		C97,11.6,97.3,13.3,97.3,15z"/>
	<polygon class="st1" points="114.2,0.2 112.2,10.1 111.2,15 110.3,20 108.3,29.8 98.4,29.8 100.4,20 101.4,15 102.4,10.1 
		104.3,0.2 	"/>
	<polygon class="st1" points="158.8,0.2 152.9,29.8 142.9,29.8 126.5,13.1 123.1,29.8 113.2,29.8 119.1,0.2 129.1,0.2 145.6,16.7 
		148.9,0.2 	"/>
	<polygon class="st1" points="51.8,0.2 45.9,29.8 36,29.8 19.5,13.1 16.2,29.8 6.2,29.8 12.1,0.2 22.1,0.2 38.6,16.7 41.9,0.2 	"/>
	<path class="st1" d="M148.9,0.2"/>
	<path class="st1" d="M125.6,17.7"/>
</g>
</svg>
