<?xml version="1.0" encoding="utf-8"?>
<!-- Generator: Adobe Illustrator 22.1.0, SVG Export Plug-In . SVG Version: 6.00 Build 0)  -->
<svg version="1.1" id="Layer_1" xmlns="http://www.w3.org/2000/svg" xmlns:xlink="http://www.w3.org/1999/xlink" x="0px" y="0px"
	 viewBox="0 0 165 30" style="enable-background:new 0 0 165 30;" xml:space="preserve">
<style type="text/css">
	.st0{fill:#FFDD09;}
	.st1{fill:#FFFFFF;}
	.st2{fill:#FD9808;}
	.st3{fill:#333333;}
	.st4{fill:#0059A4;}
	.st5{fill:#007AC5;}
	.st6{fill:#139AE4;}
</style>
<g>
	<g transform="translate(0 1)">
		<path class="st0" d="M71.2,10.1h-6l5.5-8.7h-7l-6.5,13.1h5.1l-5.1,12.2L71.2,10.1z"/>
		<path class="st1" d="M65.5,1.4h-1.7l-6.5,13.1H59L65.5,1.4z"/>
		<path class="st2" d="M69,10.1L58.5,22.5l-1.7,4.1l14-16.6C70.8,10.1,69,10.1,69,10.1z"/>
		<path class="st3" d="M57.2,27.1c-0.1,0-0.2,0-0.2,0c-0.2-0.1-0.3-0.3-0.2-0.5l4.9-11.6h-4.5c-0.1,0-0.3-0.1-0.4-0.2
			s-0.1-0.3,0-0.4l6.5-13.1c0.1-0.1,0.2-0.2,0.4-0.2h7c0.2,0,0.3,0.1,0.4,0.2c0.1,0.1,0.1,0.3,0,0.4L66,9.7h5.1
			c0.2,0,0.3,0.1,0.4,0.3c0.1,0.2,0,0.3,0,0.5l-14,16.6C57.5,27,57.4,27.1,57.2,27.1z M57.9,14h4.5c0.1,0,0.3,0.1,0.3,0.2
			c0.1,0.1,0.1,0.3,0,0.4l-4,9.6l11.5-13.7h-5.1c-0.2,0-0.3-0.1-0.4-0.2c-0.1-0.1-0.1-0.3,0-0.4L70,1.8H64L57.9,14z"/>
	</g>
	<path class="st4" d="M11.7,4.6c2.7,0,4.9,0.7,6.4,2.2c1.6,1.5,2.3,3.4,2.3,5.9c0,3.2-1.2,5.9-3.7,8.1s-5.6,3.3-9.2,3.3H0L4.5,4.6
		H11.7z M7.1,20.5c2.5,0,4.7-0.7,6.5-2.2c1.9-1.4,2.8-3.3,2.8-5.6c0-1.5-0.4-2.6-1.3-3.4c-0.9-0.8-2.1-1.2-3.8-1.2H7.6L4.8,20.5H7.1
		z"/>
	<path class="st5" d="M21.3,24.1l4.5-19.5h4l-4.5,19.5H21.3z"/>
	<path class="st6" d="M47.4,24.1h-3.3l-7.7-12.9l-3,12.9h-4l4.5-19.5h3.3l7.6,13.2l3.1-13.2h4L47.4,24.1z"/>
	<path class="st3" d="M92.9,14.2c-1.1,1.2-2.6,2-4.4,2.4l4.1,7.4h-4.5l-3.7-7.2h-3.8L79,24.1h-4l4.5-19.5h8.8c1.9,0,3.5,0.5,4.6,1.4
		c1.1,0.9,1.7,2.3,1.7,3.9C94.6,11.6,94,13,92.9,14.2z M86.2,13.3c1.3,0,2.3-0.3,3.1-0.9c0.8-0.6,1.2-1.3,1.2-2.2
		c0-0.7-0.2-1.2-0.7-1.6c-0.5-0.4-1.1-0.5-1.8-0.5h-5.4l-1.2,5.2H86.2z"/>
	<path class="st3" d="M110.8,5.6c1.3,1,2,2.4,2.1,4.1l-4,0.8c0-0.9-0.4-1.7-1-2.2s-1.5-0.9-2.5-0.9c-1,0-1.8,0.3-2.5,0.8
		c-0.7,0.5-1,1.2-1,1.9c0,0.4,0.1,0.7,0.4,1c0.3,0.3,0.7,0.5,1.4,0.7l2.8,0.8c3,0.9,4.5,2.6,4.5,5c0,2-0.7,3.6-2.2,4.8
		c-1.5,1.2-3.4,1.8-5.9,1.8c-2.1,0-3.9-0.5-5.4-1.5c-1.5-1-2.3-2.4-2.4-4.3l4.2-0.8c0.2,2.2,1.6,3.2,4,3.2c1.2,0,2.2-0.3,2.8-0.8
		c0.7-0.5,1-1.2,1-2c0-0.5-0.2-0.8-0.5-1.1c-0.3-0.3-0.8-0.5-1.6-0.8l-2.8-0.8c-0.6-0.2-1.1-0.4-1.6-0.6s-0.9-0.5-1.4-0.9
		c-0.5-0.4-0.8-0.8-1.1-1.4c-0.3-0.6-0.4-1.3-0.4-2c0-1.9,0.8-3.5,2.3-4.8s3.4-1.8,5.8-1.8C107.8,4.1,109.5,4.6,110.8,5.6z"/>
	<path class="st3" d="M124.8,4.6c2.7,0,4.9,0.7,6.4,2.2c1.6,1.5,2.3,3.4,2.3,5.9c0,3.2-1.2,5.9-3.7,8.1c-2.5,2.2-5.6,3.3-9.2,3.3
		h-7.5l4.5-19.5H124.8z M120.2,20.5c2.5,0,4.7-0.7,6.5-2.2c1.9-1.4,2.8-3.3,2.8-5.6c0-1.5-0.4-2.6-1.3-3.4c-0.9-0.8-2.1-1.2-3.8-1.2
		h-3.6l-2.9,12.3H120.2z"/>
	<path class="st3" d="M134.4,24.1l4.5-19.5h4l-4.5,19.5H134.4z"/>
	<path class="st3" d="M160.5,24.1h-3.3l-7.7-12.9l-3,12.9h-4L147,4.6h3.3l7.6,13.2L161,4.6h4L160.5,24.1z"/>
</g>
</svg>
