<?xml version="1.0" encoding="utf-8"?>
<!-- Generator: Adobe Illustrator 25.0.1, SVG Export Plug-In . SVG Version: 6.00 Build 0)  -->
<svg version="1.1" id="Layer_1" xmlns="http://www.w3.org/2000/svg" xmlns:xlink="http://www.w3.org/1999/xlink" x="0px" y="0px"
	 viewBox="0 0 323.3 86.4" style="enable-background:new 0 0 323.3 86.4;" xml:space="preserve">
<style type="text/css">
	.st0{fill:#333333;}
</style>
<g>
	<g>
		<path class="st0" d="M33.9,86.4c0-5.3,0-5.3-4.5-8.7c4.7-1.7,9-3.2,13.5-4.8C29.6,67.4,15.8,61.7,1.7,55.8c2.2-1.1,4-1.9,6.2-2.9
			c-2.7-1.6-5-3-7.9-4.8c6.3-2.7,12-5.1,18.1-7.8c-1.3-1.7-2.4-3.2-3.7-5c4.2-1.8,8.2-3.6,12.4-5.5c-0.4-1.4-0.8-2.5-1.3-4
			c18.1-7.6,36.1-15.2,54.2-22.9c0.7,1.2,1.4,2.3,2.2,3.7c5.2-2.1,10.4-4.3,16-6.6c0.3,2.1,0.5,3.9,0.9,6.2c5.1-2.1,9.9-4,15.1-6.2
			c-0.5,3-1,5.7-1.6,8.8c2.9-1.1,5.4-2.1,8.7-3.4C116,19,111.4,31.8,106.5,45c4.4-0.7,8.2-0.4,10,4.2c1,2.5,0.5,4.6-1.9,6.5
			c-1.6-3.1-3.8-1.6-5.8-0.7C85.4,64.8,62,74.7,38.5,84.6C37.1,85.2,35.7,85.8,33.9,86.4z M7.5,48.3c2.7,2.7,5,2.9,8.1,1.5
			c11.8-5.2,23.7-10.2,35.7-15c1.8-0.7,4.2-0.7,6,0c5.2,1.8,10.2,4.1,15.3,6.2c8.2,3.4,16.5,6.8,24.4,10c0.4-0.9,0.6-1.8,0.9-1.9
			c2.3-0.5,2.7-2.3,3.1-4.2c2.4-11.4,4.9-22.9,7.4-34.3c0.3-1.5,0.5-3.1,0.8-5.1c-2.9,1.2-5.2,2.4-7.6,3c-3.3,0.9-4.1,3-4,6.1
			c0.1,4.7,0,9.3,0,14c-0.2,0-0.3,0-0.5,0c-0.7-7.8-1.3-15.6-2.1-24c-4.6,1.9-8.7,3.7-12.8,5.4c1.6,5.1,3.1,9.8,4.6,14.4
			c-0.2,0.1-0.4,0.1-0.6,0.2C83.6,18.8,80.9,13,78.1,7c-16.3,7.2-32.5,13.4-48.1,21.4c1.4,0.3,2.6,0,3.8-0.5
			c10.6-4.4,21.1-8.9,31.7-13.3c1-0.4,3-0.3,3.5,0.4c3.3,4.4,6.4,9,9.6,13.6c-3.4-3-6.5-6.3-9.3-9.8c-1.5-1.9-2.8-2.2-5.1-1.2
			c-9.8,4.3-19.8,8.4-29.7,12.6c-4.9,2.1-9.8,4.2-14.7,6.3c1,3,2.4,3.2,5,2.1c9.1-4,18.2-7.8,27.4-11.6c0.9-0.4,2.3-0.9,3-0.6
			c4.8,2.7,9.4,5.5,14.1,8.3c-0.1,0.2-0.3,0.5-0.4,0.7c-3.8-2-7.5-4.1-11.4-5.8C56,29,53.8,29,52.3,29.5c-5.9,2.2-11.7,4.8-17.6,7.2
			C25.7,40.6,16.8,44.4,7.5,48.3z"/>
		<g>
			<path class="st0" d="M172.3,72c2.8,4.9,5.9,8.5,9.1,10.7c3.3,2.3,7,3.6,11.2,3.9V88c-3.8-0.1-7.8-0.9-12.2-2.3
				c-4.3-1.4-8.4-3.3-12.4-5.8c-3.8-2.4-7.2-5.1-10-7.9c-4-1.6-7.1-3.3-9.4-5.1c-3.4-2.7-6.1-6-7.9-9.9c-1.8-3.9-2.8-8.5-2.8-13.9
				c0-8.4,2.7-15.3,8.2-20.9c5.4-5.6,12-8.3,19.8-8.3c7.4,0,13.7,2.8,19.1,8.4c2.7,2.8,4.7,6,6.1,9.4c1.4,3.5,2,7.3,2,11.6
				c0,6.9-1.9,12.9-5.8,18.1C183.4,66.7,178.4,70.2,172.3,72z M165.3,17.1c-2.8,0-5.4,0.6-7.6,1.7c-2.2,1.2-4.1,2.9-5.6,5.1
				c-1.5,2.2-2.7,5-3.5,8.2c-0.8,3.2-1.2,6.9-1.2,11.1c0,3.9,0.4,7.5,1.2,10.8c0.8,3.3,1.9,6.1,3.4,8.4c1.5,2.4,3.4,4.2,5.6,5.5
				c2.2,1.3,4.8,2,7.7,2c2.8,0,5.4-0.6,7.6-1.7c2.2-1.1,4.1-2.8,5.7-5c1.6-2.2,2.8-4.9,3.6-8c0.8-3.2,1.2-6.7,1.2-10.8
				c0-4.5-0.4-8.4-1.3-11.8c-0.9-3.4-2.1-6.2-3.7-8.5s-3.5-4-5.7-5.2C170.5,17.7,168,17.1,165.3,17.1z"/>
			<path class="st0" d="M232.1,33.4v23c0,4.4,0.1,7.1,0.3,8.1c0.2,1,0.6,1.6,1,2c0.5,0.4,1,0.6,1.6,0.6c0.8,0,1.8-0.2,2.9-0.7
				l0.6,1.5l-11.4,4.7h-1.9v-8c-3.3,3.5-5.8,5.8-7.5,6.7c-1.7,0.9-3.5,1.4-5.4,1.4c-2.1,0-4-0.6-5.5-1.8c-1.5-1.2-2.6-2.8-3.3-4.8
				c-0.6-1.9-0.9-4.6-0.9-8.2v-17c0-1.2-0.1-2.3-0.3-3c-0.2-0.8-0.5-1.4-1-1.8c-0.5-0.4-1.1-0.7-1.8-0.8c-0.8-0.1-1.7-0.2-2.8-0.2
				h-0.5v-1.5h13.3v25.4c0,1.8,0.2,3.3,0.5,4.4c0.3,1.1,0.8,2,1.4,2.6c0.6,0.6,1.2,1,2,1.2c0.8,0.2,1.6,0.3,2.4,0.3
				c0.6,0,1.2-0.1,1.9-0.2c0.7-0.2,1.4-0.5,2.2-0.9c0.8-0.4,1.6-1,2.5-1.7c0.9-0.7,1.9-1.6,2.9-2.6V40.6c0-1.1-0.1-2-0.2-2.7
				c-0.2-0.7-0.5-1.3-0.9-1.7c-0.5-0.4-1.1-0.7-1.9-0.9c-0.8-0.2-1.8-0.3-3-0.3v-1.5H232.1z"/>
			<path class="st0" d="M254.4,32.3v30.5c0,1.2,0,2.2,0.1,3s0.2,1.4,0.4,1.8c0.2,0.5,0.4,0.8,0.6,1.1c0.3,0.2,0.6,0.5,0.9,0.6
				c0.7,0.4,2,0.6,3.7,0.6v1.5h-18.4v-1.5c0.9,0,1.7,0,2.3-0.1c0.6-0.1,1.1-0.2,1.4-0.4c0.4-0.2,0.7-0.4,0.9-0.7
				c0.2-0.3,0.4-0.6,0.6-1.1c0.4-0.9,0.6-2.4,0.6-4.8V48.2c0-2.4,0-4.3-0.1-5.7c-0.1-1.4-0.2-2.4-0.4-3.1c-0.2-0.7-0.5-1.1-0.9-1.3
				c-0.4-0.2-0.9-0.3-1.5-0.3c-0.8,0-1.7,0.2-2.8,0.6l-0.6-1.5l11.4-4.6H254.4z M250.9,12.5c0.6,0,1.1,0.1,1.6,0.3
				c0.5,0.2,1,0.5,1.3,0.9c0.4,0.4,0.7,0.8,0.9,1.3c0.2,0.5,0.3,1.1,0.3,1.6c0,0.6-0.1,1.1-0.3,1.6c-0.2,0.5-0.5,1-0.9,1.3
				s-0.8,0.7-1.3,0.9s-1.1,0.3-1.6,0.3s-1.1-0.1-1.6-0.3s-1-0.5-1.3-0.9s-0.7-0.8-0.9-1.3c-0.2-0.5-0.3-1.1-0.3-1.6
				c0-0.6,0.1-1.1,0.3-1.6c0.2-0.5,0.5-1,0.9-1.3c0.4-0.4,0.8-0.7,1.3-0.9C249.8,12.6,250.4,12.5,250.9,12.5z"/>
			<path class="st0" d="M277.9,12.5v50.4c0,1.2,0,2.2,0.1,3s0.2,1.4,0.4,1.8c0.2,0.5,0.4,0.8,0.6,1.1c0.3,0.2,0.6,0.5,1,0.7
				c0.7,0.4,2,0.6,4,0.6v1.5h-18.6v-1.5c1.2,0,2.2-0.1,3-0.3c0.7-0.2,1.3-0.6,1.7-1.1c0.4-0.5,0.7-1.2,0.8-2.2
				c0.1-0.9,0.2-2.1,0.2-3.6V28.3c0-2.2,0-3.9-0.1-5.2c0-1.3-0.1-2.2-0.2-2.7c-0.2-1-0.5-1.7-1-2c-0.4-0.4-1-0.5-1.6-0.5
				c-0.7,0-1.7,0.2-2.7,0.7l-0.7-1.5l11.3-4.6H277.9z"/>
			<path class="st0" d="M310,65.9c-3.9,3-6.3,4.8-7.3,5.2c-1.5,0.7-3.1,1-4.8,1c-1.3,0-2.5-0.2-3.6-0.7s-2.1-1.1-2.9-2
				c-0.8-0.9-1.4-1.9-1.9-3.1c-0.5-1.2-0.7-2.5-0.7-4c0-1.1,0.1-2.1,0.4-3c0.3-0.9,0.7-1.8,1.3-2.6c0.6-0.8,1.3-1.6,2.2-2.3
				c0.9-0.7,2-1.5,3.2-2.2c2.8-1.7,7.5-3.7,14-6.1v-1.5c0-1.9-0.2-3.5-0.5-4.8c-0.3-1.3-0.8-2.3-1.4-3c-0.6-0.8-1.3-1.3-2.2-1.6
				c-0.9-0.3-1.9-0.5-3-0.5c-0.9,0-1.7,0.1-2.4,0.4c-0.7,0.3-1.3,0.6-1.8,1c-0.5,0.4-0.9,0.9-1.1,1.5c-0.3,0.6-0.4,1.1-0.4,1.7
				l0.1,2.4c0,1.3-0.3,2.3-1,2.9c-0.7,0.7-1.5,1-2.5,1c-1,0-1.9-0.4-2.5-1.1c-0.6-0.7-1-1.7-1-2.9c0-1.2,0.3-2.3,0.9-3.4
				c0.6-1.1,1.5-2.2,2.7-3.1c1.2-0.9,2.6-1.6,4.4-2.2c1.7-0.6,3.7-0.8,5.9-0.8c2.9,0,5.4,0.4,7.5,1.3c2,0.9,3.5,2.3,4.4,4.4
				c0.5,1.2,0.7,3.6,0.7,7.3v12.9c0,1.8,0,3.3,0.1,4.4c0,1.1,0.1,1.9,0.1,2.3c0.1,0.8,0.4,1.3,0.7,1.6c0.3,0.3,0.7,0.4,1.1,0.4
				c0.3,0,0.5,0,0.8-0.1c0.2-0.1,0.5-0.2,0.9-0.5c0.3-0.2,0.7-0.6,1.2-1c0.4-0.4,1-1,1.7-1.7v2.3c-3.1,4.1-6.1,6.2-8.9,6.2
				c-1.3,0-2.4-0.5-3.2-1.4C310.4,69.8,310,68.2,310,65.9z M310,63.2V48.8c-2.1,0.8-3.8,1.5-5.2,2.1c-1.3,0.6-2.3,1.1-2.9,1.4
				c-2.2,1.2-3.7,2.5-4.7,3.8c-0.9,1.3-1.4,2.8-1.4,4.3c0,1,0.2,1.9,0.5,2.8c0.3,0.8,0.7,1.6,1.3,2.2c0.5,0.6,1.2,1.1,1.9,1.5
				c0.7,0.3,1.5,0.5,2.2,0.5C303.8,67.4,306.5,66,310,63.2z"/>
		</g>
	</g>
</g>
</svg>
